<svg id="wave" style="transform:rotate(0deg); transition: 0.3s" viewBox="0 0 1440 490" version="1.1" xmlns="http://www.w3.org/2000/svg">
    <defs>
    <linearGradient id="sw-gradient-0" x1="0" x2="0" y1="1" y2="0">
        <stop stop-color="rgba(239.48, 121.859, 0, 1)" offset="0%"></stop>
        <stop stop-color="rgba(254, 143, 28, 1)" offset="100%"></stop>
    </linearGradient>
    </defs>
    <path style="transform:translate(0, 0px); opacity:1" fill="url(#sw-gradient-0)" d="M0,294L80,277.7C160,261,320,229,480,245C640,261,800,327,960,367.5C1120,408,1280,425,1440,400.2C1600,376,1760,310,1920,236.8C2080,163,2240,82,2400,89.8C2560,98,2720,196,2880,269.5C3040,343,3200,392,3360,375.7C3520,359,3680,278,3840,253.2C4000,229,4160,261,4320,294C4480,327,4640,359,4800,375.7C4960,392,5120,392,5280,392C5440,392,5600,392,5760,383.8C5920,376,6080,359,6240,367.5C6400,376,6560,408,6720,359.3C6880,310,7040,180,7200,171.5C7360,163,7520,278,7680,343C7840,408,8000,425,8160,416.5C8320,408,8480,376,8640,359.3C8800,343,8960,343,9120,302.2C9280,261,9440,180,9600,155.2C9760,131,9920,163,10080,147C10240,131,10400,65,10560,57.2C10720,49,10880,98,11040,138.8C11200,180,11360,212,11440,228.7L11520,245L11520,490L11440,490C11360,490,11200,490,11040,490C10880,490,10720,490,10560,490C10400,490,10240,490,10080,490C9920,490,9760,490,9600,490C9440,490,9280,490,9120,490C8960,490,8800,490,8640,490C8480,490,8320,490,8160,490C8000,490,7840,490,7680,490C7520,490,7360,490,7200,490C7040,490,6880,490,6720,490C6560,490,6400,490,6240,490C6080,490,5920,490,5760,490C5600,490,5440,490,5280,490C5120,490,4960,490,4800,490C4640,490,4480,490,4320,490C4160,490,4000,490,3840,490C3680,490,3520,490,3360,490C3200,490,3040,490,2880,490C2720,490,2560,490,2400,490C2240,490,2080,490,1920,490C1760,490,1600,490,1440,490C1280,490,1120,490,960,490C800,490,640,490,480,490C320,490,160,490,80,490L0,490Z">
    </path>
    <defs>
    <linearGradient id="sw-gradient-1" x1="0" x2="0" y1="1" y2="0">
        <stop stop-color="rgba(102, 19, 208, 1)" offset="0%">

        </stop>
        <stop stop-color="rgba(130.544, 54.158, 228.096, 1)" offset="100%">

        </stop>
    </linearGradient>
    </defs>
    <path style="transform:translate(0, 50px); opacity:0.9" fill="url(#sw-gradient-1)" d="M0,196L80,228.7C160,261,320,327,480,367.5C640,408,800,425,960,400.2C1120,376,1280,310,1440,253.2C1600,196,1760,147,1920,130.7C2080,114,2240,131,2400,130.7C2560,131,2720,114,2880,130.7C3040,147,3200,196,3360,236.8C3520,278,3680,310,3840,285.8C4000,261,4160,180,4320,155.2C4480,131,4640,163,4800,155.2C4960,147,5120,98,5280,98C5440,98,5600,147,5760,196C5920,245,6080,294,6240,285.8C6400,278,6560,212,6720,220.5C6880,229,7040,310,7200,285.8C7360,261,7520,131,7680,65.3C7840,0,8000,0,8160,16.3C8320,33,8480,65,8640,138.8C8800,212,8960,327,9120,367.5C9280,408,9440,376,9600,359.3C9760,343,9920,343,10080,302.2C10240,261,10400,180,10560,155.2C10720,131,10880,163,11040,147C11200,131,11360,65,11440,32.7L11520,0L11520,490L11440,490C11360,490,11200,490,11040,490C10880,490,10720,490,10560,490C10400,490,10240,490,10080,490C9920,490,9760,490,9600,490C9440,490,9280,490,9120,490C8960,490,8800,490,8640,490C8480,490,8320,490,8160,490C8000,490,7840,490,7680,490C7520,490,7360,490,7200,490C7040,490,6880,490,6720,490C6560,490,6400,490,6240,490C6080,490,5920,490,5760,490C5600,490,5440,490,5280,490C5120,490,4960,490,4800,490C4640,490,4480,490,4320,490C4160,490,4000,490,3840,490C3680,490,3520,490,3360,490C3200,490,3040,490,2880,490C2720,490,2560,490,2400,490C2240,490,2080,490,1920,490C1760,490,1600,490,1440,490C1280,490,1120,490,960,490C800,490,640,490,480,490C320,490,160,490,80,490L0,490Z">
    </path>
</svg>